<svg xmlns="http://www.w3.org/2000/svg" viewBox="0 0 2000 2000" shape-rendering="crispEdges"><path fill="#fff" d="M0 0h2000v2000H0z"/><path d="M668 158h51v51h-51zM770 158h51v51h-51zM974 158h51v51h-51zM1076 158h51v51h-51zM1178 158h51v51h-51zM1229 158h51v51h-51zM1382 158h51v51h-51zM566 209h51v51h-51zM668 209h51v51h-51zM821 209h51v51h-51zM1025 209h51v51h-51zM1127 209h51v51h-51zM1280 209h51v51h-51zM1331 209h51v51h-51zM1382 209h51v51h-51zM770 260h51v51h-51zM821 260h51v51h-51zM974 260h51v51h-51zM1076 260h51v51h-51zM1127 260h51v51h-51zM1178 260h51v51h-51zM1229 260h51v51h-51zM1280 260h51v51h-51zM1331 260h51v51h-51zM566 311h51v51h-51zM617 311h51v51h-51zM668 311h51v51h-51zM770 311h51v51h-51zM821 311h51v51h-51zM872 311h51v51h-51zM923 311h51v51h-51zM974 311h51v51h-51zM1178 311h51v51h-51zM1229 311h51v51h-51zM1280 311h51v51h-51zM1382 311h51v51h-51zM617 362h51v51h-51zM872 362h51v51h-51zM974 362h51v51h-51zM1229 362h51v51h-51zM1280 362h51v51h-51zM566 413h51v51h-51zM617 413h51v51h-51zM719 413h51v51h-51zM770 413h51v51h-51zM1025 413h51v51h-51zM1280 413h51v51h-51zM566 464h51v51h-51zM668 464h51v51h-51zM770 464h51v51h-51zM872 464h51v51h-51zM974 464h51v51h-51zM1076 464h51v51h-51zM1178 464h51v51h-51zM1280 464h51v51h-51zM1382 464h51v51h-51zM617 515h51v51h-51zM668 515h51v51h-51zM719 515h51v51h-51zM974 515h51v51h-51zM1127 515h51v51h-51zM1178 515h51v51h-51zM1229 515h51v51h-51zM1331 515h51v51h-51zM158 566h51v51h-51zM209 566h51v51h-51zM260 566h51v51h-51zM311 566h51v51h-51zM362 566h51v51h-51zM464 566h51v51h-51zM515 566h51v51h-51zM566 566h51v51h-51zM617 566h51v51h-51zM719 566h51v51h-51zM923 566h51v51h-51zM974 566h51v51h-51zM1025 566h51v51h-51zM1076 566h51v51h-51zM1433 566h51v51h-51zM1535 566h51v51h-51zM1637 566h51v51h-51zM1739 566h51v51h-51zM209 617h51v51h-51zM260 617h51v51h-51zM362 617h51v51h-51zM566 617h51v51h-51zM668 617h51v51h-51zM770 617h51v51h-51zM821 617h51v51h-51zM923 617h51v51h-51zM1076 617h51v51h-51zM1178 617h51v51h-51zM1229 617h51v51h-51zM1382 617h51v51h-51zM1433 617h51v51h-51zM1484 617h51v51h-51zM1586 617h51v51h-51zM1637 617h51v51h-51zM1688 617h51v51h-51zM209 668h51v51h-51zM311 668h51v51h-51zM413 668h51v51h-51zM464 668h51v51h-51zM515 668h51v51h-51zM668 668h51v51h-51zM821 668h51v51h-51zM872 668h51v51h-51zM1025 668h51v51h-51zM1178 668h51v51h-51zM1331 668h51v51h-51zM1382 668h51v51h-51zM1433 668h51v51h-51zM1535 668h51v51h-51zM1586 668h51v51h-51zM1637 668h51v51h-51zM1739 668h51v51h-51zM260 719h51v51h-51zM362 719h51v51h-51zM413 719h51v51h-51zM566 719h51v51h-51zM770 719h51v51h-51zM821 719h51v51h-51zM974 719h51v51h-51zM1127 719h51v51h-51zM1178 719h51v51h-51zM1331 719h51v51h-51zM1484 719h51v51h-51zM1688 719h51v51h-51zM1739 719h51v51h-51zM1790 719h51v51h-51zM158 770h51v51h-51zM362 770h51v51h-51zM413 770h51v51h-51zM464 770h51v51h-51zM566 770h51v51h-51zM617 770h51v51h-51zM668 770h51v51h-51zM770 770h51v51h-51zM872 770h51v51h-51zM923 770h51v51h-51zM1178 770h51v51h-51zM1280 770h51v51h-51zM1433 770h51v51h-51zM1484 770h51v51h-51zM1535 770h51v51h-51zM1586 770h51v51h-51zM1688 770h51v51h-51zM1739 770h51v51h-51zM158 821h51v51h-51zM260 821h51v51h-51zM311 821h51v51h-51zM413 821h51v51h-51zM515 821h51v51h-51zM566 821h51v51h-51zM923 821h51v51h-51zM974 821h51v51h-51zM1076 821h51v51h-51zM1127 821h51v51h-51zM1229 821h51v51h-51zM1331 821h51v51h-51zM1484 821h51v51h-51zM1535 821h51v51h-51zM1586 821h51v51h-51zM1637 821h51v51h-51zM1688 821h51v51h-51zM158 872h51v51h-51zM260 872h51v51h-51zM311 872h51v51h-51zM413 872h51v51h-51zM464 872h51v51h-51zM515 872h51v51h-51zM566 872h51v51h-51zM617 872h51v51h-51zM719 872h51v51h-51zM770 872h51v51h-51zM923 872h51v51h-51zM974 872h51v51h-51zM1025 872h51v51h-51zM1076 872h51v51h-51zM1178 872h51v51h-51zM1280 872h51v51h-51zM1382 872h51v51h-51zM1433 872h51v51h-51zM1586 872h51v51h-51zM1637 872h51v51h-51zM1739 872h51v51h-51zM158 923h51v51h-51zM311 923h51v51h-51zM515 923h51v51h-51zM617 923h51v51h-51zM668 923h51v51h-51zM719 923h51v51h-51zM872 923h51v51h-51zM974 923h51v51h-51zM1025 923h51v51h-51zM1076 923h51v51h-51zM1127 923h51v51h-51zM1178 923h51v51h-51zM1331 923h51v51h-51zM1484 923h51v51h-51zM1688 923h51v51h-51zM1739 923h51v51h-51zM1790 923h51v51h-51zM209 974h51v51h-51zM260 974h51v51h-51zM311 974h51v51h-51zM362 974h51v51h-51zM413 974h51v51h-51zM464 974h51v51h-51zM515 974h51v51h-51zM617 974h51v51h-51zM719 974h51v51h-51zM923 974h51v51h-51zM974 974h51v51h-51zM1178 974h51v51h-51zM1229 974h51v51h-51zM1382 974h51v51h-51zM1433 974h51v51h-51zM1484 974h51v51h-51zM1535 974h51v51h-51zM1586 974h51v51h-51zM1637 974h51v51h-51zM1739 974h51v51h-51zM158 1025h51v51h-51zM260 1025h51v51h-51zM362 1025h51v51h-51zM413 1025h51v51h-51zM515 1025h51v51h-51zM770 1025h51v51h-51zM821 1025h51v51h-51zM872 1025h51v51h-51zM923 1025h51v51h-51zM1178 1025h51v51h-51zM1229 1025h51v51h-51zM1280 1025h51v51h-51zM1331 1025h51v51h-51zM1433 1025h51v51h-51zM1535 1025h51v51h-51zM1688 1025h51v51h-51zM209 1076h51v51h-51zM260 1076h51v51h-51zM413 1076h51v51h-51zM464 1076h51v51h-51zM515 1076h51v51h-51zM617 1076h51v51h-51zM668 1076h51v51h-51zM821 1076h51v51h-51zM872 1076h51v51h-51zM923 1076h51v51h-51zM1025 1076h51v51h-51zM1280 1076h51v51h-51zM1331 1076h51v51h-51zM1382 1076h51v51h-51zM1433 1076h51v51h-51zM1586 1076h51v51h-51zM1637 1076h51v51h-51zM1790 1076h51v51h-51zM209 1127h51v51h-51zM260 1127h51v51h-51zM413 1127h51v51h-51zM515 1127h51v51h-51zM566 1127h51v51h-51zM668 1127h51v51h-51zM770 1127h51v51h-51zM821 1127h51v51h-51zM974 1127h51v51h-51zM1127 1127h51v51h-51zM1178 1127h51v51h-51zM1331 1127h51v51h-51zM1382 1127h51v51h-51zM1433 1127h51v51h-51zM1484 1127h51v51h-51zM1790 1127h51v51h-51zM362 1178h51v51h-51zM413 1178h51v51h-51zM464 1178h51v51h-51zM515 1178h51v51h-51zM566 1178h51v51h-51zM617 1178h51v51h-51zM770 1178h51v51h-51zM872 1178h51v51h-51zM923 1178h51v51h-51zM1076 1178h51v51h-51zM1280 1178h51v51h-51zM1382 1178h51v51h-51zM1484 1178h51v51h-51zM1739 1178h51v51h-51zM158 1229h51v51h-51zM260 1229h51v51h-51zM413 1229h51v51h-51zM668 1229h51v51h-51zM923 1229h51v51h-51zM974 1229h51v51h-51zM1076 1229h51v51h-51zM1178 1229h51v51h-51zM1229 1229h51v51h-51zM1280 1229h51v51h-51zM1331 1229h51v51h-51zM1382 1229h51v51h-51zM1433 1229h51v51h-51zM1535 1229h51v51h-51zM1688 1229h51v51h-51zM1739 1229h51v51h-51zM1790 1229h51v51h-51zM158 1280h51v51h-51zM311 1280h51v51h-51zM362 1280h51v51h-51zM413 1280h51v51h-51zM464 1280h51v51h-51zM515 1280h51v51h-51zM719 1280h51v51h-51zM770 1280h51v51h-51zM923 1280h51v51h-51zM974 1280h51v51h-51zM1025 1280h51v51h-51zM1178 1280h51v51h-51zM1331 1280h51v51h-51zM1433 1280h51v51h-51zM1535 1280h51v51h-51zM1586 1280h51v51h-51zM1790 1280h51v51h-51zM158 1331h51v51h-51zM413 1331h51v51h-51zM515 1331h51v51h-51zM566 1331h51v51h-51zM719 1331h51v51h-51zM872 1331h51v51h-51zM974 1331h51v51h-51zM1127 1331h51v51h-51zM1178 1331h51v51h-51zM1331 1331h51v51h-51zM1484 1331h51v51h-51zM1637 1331h51v51h-51zM1739 1331h51v51h-51zM1790 1331h51v51h-51zM158 1382h51v51h-51zM311 1382h51v51h-51zM413 1382h51v51h-51zM464 1382h51v51h-51zM515 1382h51v51h-51zM566 1382h51v51h-51zM668 1382h51v51h-51zM719 1382h51v51h-51zM923 1382h51v51h-51zM1025 1382h51v51h-51zM1076 1382h51v51h-51zM1178 1382h51v51h-51zM1280 1382h51v51h-51zM1382 1382h51v51h-51zM1433 1382h51v51h-51zM1484 1382h51v51h-51zM1535 1382h51v51h-51zM1586 1382h51v51h-51zM1637 1382h51v51h-51zM566 1433h51v51h-51zM617 1433h51v51h-51zM770 1433h51v51h-51zM821 1433h51v51h-51zM872 1433h51v51h-51zM974 1433h51v51h-51zM1076 1433h51v51h-51zM1178 1433h51v51h-51zM1229 1433h51v51h-51zM1280 1433h51v51h-51zM1331 1433h51v51h-51zM1382 1433h51v51h-51zM1586 1433h51v51h-51zM1688 1433h51v51h-51zM566 1484h51v51h-51zM617 1484h51v51h-51zM668 1484h51v51h-51zM821 1484h51v51h-51zM872 1484h51v51h-51zM1025 1484h51v51h-51zM1280 1484h51v51h-51zM1382 1484h51v51h-51zM1484 1484h51v51h-51zM1586 1484h51v51h-51zM1739 1484h51v51h-51zM770 1535h51v51h-51zM821 1535h51v51h-51zM974 1535h51v51h-51zM1076 1535h51v51h-51zM1127 1535h51v51h-51zM1178 1535h51v51h-51zM1229 1535h51v51h-51zM1280 1535h51v51h-51zM1331 1535h51v51h-51zM1382 1535h51v51h-51zM1586 1535h51v51h-51zM1637 1535h51v51h-51zM1790 1535h51v51h-51zM566 1586h51v51h-51zM617 1586h51v51h-51zM668 1586h51v51h-51zM770 1586h51v51h-51zM872 1586h51v51h-51zM923 1586h51v51h-51zM974 1586h51v51h-51zM1178 1586h51v51h-51zM1331 1586h51v51h-51zM1382 1586h51v51h-51zM1433 1586h51v51h-51zM1484 1586h51v51h-51zM1535 1586h51v51h-51zM1586 1586h51v51h-51zM1637 1586h51v51h-51zM1790 1586h51v51h-51zM566 1637h51v51h-51zM617 1637h51v51h-51zM923 1637h51v51h-51zM974 1637h51v51h-51zM1178 1637h51v51h-51zM1229 1637h51v51h-51zM1280 1637h51v51h-51zM1535 1637h51v51h-51zM1637 1637h51v51h-51zM1688 1637h51v51h-51zM1739 1637h51v51h-51zM566 1688h51v51h-51zM617 1688h51v51h-51zM668 1688h51v51h-51zM719 1688h51v51h-51zM770 1688h51v51h-51zM923 1688h51v51h-51zM1025 1688h51v51h-51zM1280 1688h51v51h-51zM1331 1688h51v51h-51zM1382 1688h51v51h-51zM1433 1688h51v51h-51zM1637 1688h51v51h-51zM566 1739h51v51h-51zM719 1739h51v51h-51zM872 1739h51v51h-51zM974 1739h51v51h-51zM1127 1739h51v51h-51zM1178 1739h51v51h-51zM1229 1739h51v51h-51zM1280 1739h51v51h-51zM1433 1739h51v51h-51zM1586 1739h51v51h-51zM1688 1739h51v51h-51zM1739 1739h51v51h-51zM1790 1739h51v51h-51zM566 1790h51v51h-51zM617 1790h51v51h-51zM719 1790h51v51h-51zM923 1790h51v51h-51zM974 1790h51v51h-51zM1025 1790h51v51h-51zM1076 1790h51v51h-51zM1178 1790h51v51h-51zM1280 1790h51v51h-51zM1382 1790h51v51h-51zM1433 1790h51v51h-51zM1484 1790h51v51h-51zM1637 1790h51v51h-51zM1739 1790h51v51h-51zM464.51 158H158.51v357h357V158zm0 102v204H209.51V209h255zM362 260H260v153h153V260zM1790.51 158H1484.51v357h357V158zm0 102v204H1535.51V209h255zM1688 260H1586v153h153V260zM464.51 1484H158.51v357h357V1484zm0 102v204H209.51V1535h255zM362 1586H260v153h153V1586z"/></svg>